<svg width="24" height="26" viewBox="0 0 24 26" fill="none" xmlns="http://www.w3.org/2000/svg">
<path d="M8 16.9902L16.7201 16.2302C19.4486 15.9925 20.0611 15.3692 20.3635 12.5235L21 6.5322" stroke="#4F266B" stroke-width="1.5" stroke-linecap="round"/>
<path d="M6 6.5322H6.5M22 6.5322H19.5" stroke="#4F266B" stroke-width="1.5" stroke-linecap="round"/>
<path d="M9.5 6.53219H16.5M13 10.1925V2.87189" stroke="#4F266B" stroke-width="1.5" stroke-linecap="round"/>
<path d="M6 23.265C7.10457 23.265 8 22.3286 8 21.1734C8 20.0182 7.10457 19.0818 6 19.0818C4.89543 19.0818 4 20.0182 4 21.1734C4 22.3286 4.89543 23.265 6 23.265Z" fill="#4F266B" stroke="#4F266B" stroke-width="1.5"/>
<path d="M17 23.265C18.1046 23.265 19 22.3286 19 21.1734C19 20.0182 18.1046 19.0818 17 19.0818C15.8954 19.0818 15 20.0182 15 21.1734C15 22.3286 15.8954 23.265 17 23.265Z" fill="#4F266B" stroke="#4F266B" stroke-width="1.5"/>
<path d="M8 21.1734H15" stroke="#4F266B" stroke-width="1.5" stroke-linecap="round"/>
<path d="M2 2.349H2.966C3.91068 2.349 4.73414 3.0022 4.96326 3.93332L7.93852 16.0244C8.08887 16.6355 7.9602 17.2827 7.58824 17.7867L6.63213 19.0818" stroke="#4F266B" stroke-width="1.5" stroke-linecap="round"/>
</svg>
