<svg id="svg" version="1.1" xmlns="http://www.w3.org/2000/svg" xmlns:xlink="http://www.w3.org/1999/xlink" width="400" height="400" viewBox="0, 0, 400,400"><g id="svgg"><path id="path0" d="M30.800 20.400 C 30.800 20.620,30.170 20.800,29.400 20.800 C 28.630 20.800,28.000 20.980,28.000 21.200 C 28.000 21.420,27.640 21.600,27.200 21.600 C 26.760 21.600,26.400 21.750,26.400 21.932 C 26.400 22.115,25.905 22.520,25.300 22.832 C 23.980 23.513,23.200 24.211,23.200 24.709 C 23.200 24.911,22.840 25.402,22.400 25.800 C 21.960 26.198,21.600 26.766,21.600 27.062 C 21.600 27.358,21.420 27.600,21.200 27.600 C 20.980 27.600,20.800 28.129,20.800 28.776 C 20.800 29.423,20.620 30.064,20.400 30.200 C 20.180 30.336,20.000 31.877,20.000 33.624 C 20.000 35.475,20.167 36.800,20.400 36.800 C 20.620 36.800,20.800 37.340,20.800 38.000 C 20.800 38.660,20.980 39.200,21.200 39.200 C 21.420 39.200,21.600 39.474,21.600 39.809 C 21.600 40.483,25.744 44.800,26.391 44.800 C 26.616 44.800,26.800 44.980,26.800 45.200 C 26.800 45.420,27.160 45.600,27.600 45.600 C 28.040 45.600,28.400 45.780,28.400 46.000 C 28.400 46.220,29.120 46.400,30.000 46.400 C 30.880 46.400,31.600 46.580,31.600 46.800 C 31.600 47.020,32.320 47.200,33.200 47.200 C 34.080 47.200,34.800 47.380,34.800 47.600 C 34.800 47.820,35.520 48.000,36.400 48.000 C 37.280 48.000,38.000 48.180,38.000 48.400 C 38.000 48.620,38.720 48.800,39.600 48.800 C 40.480 48.800,41.200 48.980,41.200 49.200 C 41.200 49.420,41.830 49.600,42.600 49.600 C 43.370 49.600,44.000 49.780,44.000 50.000 C 44.000 50.220,44.720 50.400,45.600 50.400 C 46.480 50.400,47.200 50.580,47.200 50.800 C 47.200 51.020,47.819 51.200,48.576 51.200 C 49.333 51.200,50.064 51.380,50.200 51.600 C 50.336 51.820,51.056 52.000,51.800 52.000 C 52.544 52.000,53.252 52.160,53.373 52.356 C 53.494 52.551,54.224 52.821,54.996 52.956 C 55.768 53.090,57.032 53.310,57.804 53.444 C 58.576 53.579,59.306 53.849,59.427 54.044 C 59.548 54.240,60.256 54.400,61.000 54.400 C 61.744 54.400,62.464 54.580,62.600 54.800 C 62.736 55.020,63.456 55.200,64.200 55.200 C 64.944 55.200,65.652 55.360,65.773 55.556 C 65.894 55.751,66.579 56.008,67.296 56.127 C 68.013 56.245,69.410 56.546,70.400 56.796 C 71.390 57.046,73.235 57.443,74.500 57.680 C 75.765 57.917,76.800 58.266,76.800 58.455 C 76.800 58.645,77.160 58.800,77.600 58.800 C 78.040 58.800,78.400 58.980,78.400 59.200 C 78.400 59.420,78.760 59.600,79.200 59.600 C 79.640 59.600,80.000 59.750,80.000 59.932 C 80.000 60.115,80.495 60.520,81.100 60.832 C 82.401 61.503,85.600 64.732,85.600 65.375 C 85.600 65.622,85.960 66.083,86.400 66.400 C 86.840 66.717,87.200 67.297,87.200 67.688 C 87.200 68.080,87.380 68.400,87.600 68.400 C 87.820 68.400,88.000 68.760,88.000 69.200 C 88.000 69.640,88.180 70.000,88.400 70.000 C 88.620 70.000,88.800 70.529,88.800 71.176 C 88.800 71.823,88.980 72.464,89.200 72.600 C 89.420 72.736,89.600 73.917,89.600 75.224 C 89.600 76.541,89.778 77.600,90.000 77.600 C 90.233 77.600,90.400 78.925,90.400 80.776 C 90.400 82.523,90.580 84.064,90.800 84.200 C 91.020 84.336,91.201 85.652,91.203 87.124 C 91.205 88.596,91.382 90.884,91.597 92.210 C 92.006 94.725,92.739 102.196,93.048 107.000 C 93.148 108.540,93.396 110.160,93.600 110.600 C 93.804 111.040,94.070 112.750,94.191 114.400 C 94.312 116.050,94.512 118.750,94.636 120.400 C 94.759 122.050,95.027 123.571,95.230 123.780 C 95.434 123.989,95.600 125.553,95.600 127.256 C 95.600 128.959,95.780 130.464,96.000 130.600 C 96.220 130.736,96.400 132.277,96.400 134.024 C 96.400 135.875,96.567 137.200,96.800 137.200 C 97.035 137.200,97.200 138.600,97.200 140.600 C 97.200 142.600,97.365 144.000,97.600 144.000 C 97.833 144.000,98.000 145.325,98.000 147.176 C 98.000 148.923,98.180 150.464,98.400 150.600 C 98.620 150.736,98.800 152.277,98.800 154.024 C 98.800 155.875,98.967 157.200,99.200 157.200 C 99.433 157.200,99.600 158.525,99.600 160.376 C 99.600 162.123,99.780 163.664,100.000 163.800 C 100.220 163.936,100.400 165.466,100.400 167.200 C 100.400 168.934,100.580 170.464,100.800 170.600 C 101.020 170.736,101.200 172.176,101.200 173.800 C 101.200 175.424,101.380 176.864,101.600 177.000 C 101.820 177.136,102.000 178.767,102.000 180.624 C 102.000 182.608,102.165 184.000,102.400 184.000 C 102.633 184.000,102.800 185.333,102.800 187.200 C 102.800 189.067,102.967 190.400,103.200 190.400 C 103.435 190.400,103.600 191.800,103.600 193.800 C 103.600 195.800,103.765 197.200,104.000 197.200 C 104.233 197.200,104.400 198.533,104.400 200.400 C 104.400 202.267,104.567 203.600,104.800 203.600 C 105.035 203.600,105.200 205.000,105.200 207.000 C 105.200 209.000,105.365 210.400,105.600 210.400 C 105.833 210.400,106.000 211.725,106.000 213.576 C 106.000 215.323,106.180 216.864,106.400 217.000 C 106.620 217.136,106.800 218.677,106.800 220.424 C 106.800 222.275,106.967 223.600,107.200 223.600 C 107.433 223.600,107.600 224.933,107.600 226.800 C 107.600 228.667,107.767 230.000,108.000 230.000 C 108.227 230.000,108.415 231.257,108.435 232.900 C 108.468 235.630,108.668 237.937,109.623 246.600 C 109.841 248.580,110.112 251.460,110.224 253.000 C 110.337 254.540,110.596 256.160,110.800 256.600 C 111.004 257.040,111.270 258.750,111.391 260.400 C 111.512 262.050,111.712 264.750,111.836 266.400 C 111.959 268.050,112.227 269.571,112.430 269.780 C 112.634 269.989,112.800 271.553,112.800 273.256 C 112.800 274.959,112.980 276.464,113.200 276.600 C 113.420 276.736,113.600 278.277,113.600 280.024 C 113.600 281.875,113.767 283.200,114.000 283.200 C 114.235 283.200,114.400 284.600,114.400 286.600 C 114.400 288.600,114.565 290.000,114.800 290.000 C 115.020 290.000,115.200 290.270,115.200 290.600 C 115.200 290.930,114.928 291.200,114.595 291.200 C 114.262 291.200,113.677 291.354,113.295 291.541 C 112.913 291.729,111.880 292.220,111.000 292.633 C 109.343 293.410,107.419 294.631,106.482 295.500 C 106.186 295.775,105.775 296.000,105.569 296.000 C 105.008 296.000,95.600 305.561,95.600 306.131 C 95.600 306.402,95.240 306.883,94.800 307.200 C 94.360 307.517,94.000 307.920,94.000 308.096 C 94.000 308.272,93.550 309.129,93.000 310.000 C 92.450 310.871,92.000 311.858,92.000 312.192 C 92.000 312.526,91.820 312.800,91.600 312.800 C 91.380 312.800,91.200 313.160,91.200 313.600 C 91.200 314.040,91.020 314.400,90.800 314.400 C 90.580 314.400,90.400 314.940,90.400 315.600 C 90.400 316.260,90.220 316.800,90.000 316.800 C 89.780 316.800,89.600 317.149,89.600 317.576 C 89.600 318.003,89.420 318.464,89.200 318.600 C 88.980 318.736,88.800 319.467,88.800 320.224 C 88.800 320.981,88.620 321.600,88.400 321.600 C 88.180 321.600,88.000 322.320,88.000 323.200 C 88.000 324.080,87.820 324.800,87.600 324.800 C 87.345 324.800,87.200 328.000,87.200 333.600 C 87.200 339.200,87.345 342.400,87.600 342.400 C 87.820 342.400,88.000 343.120,88.000 344.000 C 88.000 344.880,88.180 345.600,88.400 345.600 C 88.620 345.600,88.800 346.320,88.800 347.200 C 88.800 348.080,88.980 348.800,89.200 348.800 C 89.420 348.800,89.600 349.239,89.600 349.776 C 89.600 350.313,89.780 350.864,90.000 351.000 C 90.220 351.136,90.400 351.597,90.400 352.024 C 90.400 352.451,90.580 352.800,90.800 352.800 C 91.020 352.800,91.200 353.160,91.200 353.600 C 91.200 354.040,91.380 354.400,91.600 354.400 C 91.820 354.400,92.000 354.683,92.000 355.029 C 92.000 355.703,93.838 359.055,94.686 359.929 C 94.969 360.219,95.200 360.602,95.200 360.778 C 95.200 360.955,95.920 361.887,96.800 362.849 C 97.680 363.812,98.400 364.716,98.400 364.858 C 98.400 365.274,100.458 367.306,102.400 368.807 C 103.390 369.572,104.599 370.589,105.087 371.068 C 105.575 371.546,106.340 372.054,106.787 372.196 C 107.234 372.338,107.600 372.622,107.600 372.827 C 107.600 373.032,107.784 373.200,108.008 373.200 C 108.232 373.200,109.129 373.650,110.000 374.200 C 110.871 374.750,111.858 375.200,112.192 375.200 C 112.526 375.200,112.800 375.380,112.800 375.600 C 112.800 375.820,113.160 376.000,113.600 376.000 C 114.040 376.000,114.400 376.180,114.400 376.400 C 114.400 376.620,114.940 376.800,115.600 376.800 C 116.260 376.800,116.800 376.980,116.800 377.200 C 116.800 377.420,117.239 377.600,117.776 377.600 C 118.313 377.600,118.864 377.780,119.000 378.000 C 119.136 378.220,119.777 378.400,120.424 378.400 C 121.071 378.400,121.600 378.580,121.600 378.800 C 121.600 379.020,122.500 379.200,123.600 379.200 C 124.700 379.200,125.600 379.380,125.600 379.600 C 125.600 379.853,128.400 380.000,133.200 380.000 C 138.000 380.000,140.800 379.853,140.800 379.600 C 140.800 379.380,141.700 379.200,142.800 379.200 C 143.900 379.200,144.800 379.020,144.800 378.800 C 144.800 378.580,145.520 378.400,146.400 378.400 C 147.280 378.400,148.000 378.220,148.000 378.000 C 148.000 377.780,148.439 377.600,148.976 377.600 C 149.513 377.600,150.064 377.420,150.200 377.200 C 150.336 376.980,150.797 376.800,151.224 376.800 C 151.651 376.800,152.000 376.620,152.000 376.400 C 152.000 376.180,152.360 376.000,152.800 376.000 C 153.240 376.000,153.600 375.820,153.600 375.600 C 153.600 375.380,153.891 375.200,154.246 375.200 C 155.070 375.200,158.800 373.182,158.800 372.736 C 158.800 372.551,159.072 372.400,159.404 372.400 C 159.736 372.400,160.572 371.860,161.263 371.200 C 161.954 370.540,162.675 370.000,162.865 370.000 C 163.356 370.000,170.000 363.297,170.000 362.802 C 170.000 362.577,170.540 361.828,171.200 361.137 C 171.860 360.446,172.400 359.638,172.400 359.341 C 172.400 359.043,172.580 358.800,172.800 358.800 C 173.020 358.800,173.200 358.616,173.200 358.392 C 173.200 358.168,173.650 357.271,174.200 356.400 C 174.750 355.529,175.200 354.542,175.200 354.208 C 175.200 353.874,175.380 353.600,175.600 353.600 C 175.820 353.600,176.000 353.161,176.000 352.624 C 176.000 352.087,176.180 351.536,176.400 351.400 C 176.620 351.264,176.800 350.803,176.800 350.376 C 176.800 349.949,176.980 349.600,177.200 349.600 C 177.420 349.600,177.600 349.060,177.600 348.400 C 177.600 347.740,177.780 347.200,178.000 347.200 C 178.220 347.200,178.400 346.480,178.400 345.600 C 178.400 344.720,178.580 344.000,178.800 344.000 C 179.022 344.000,179.200 342.941,179.200 341.624 C 179.200 340.317,179.380 339.136,179.600 339.000 C 180.136 338.669,180.136 328.800,179.600 328.800 C 179.378 328.800,179.200 327.733,179.200 326.400 C 179.200 325.067,179.022 324.000,178.800 324.000 C 178.580 324.000,178.400 323.280,178.400 322.400 C 178.400 321.520,178.220 320.800,178.000 320.800 C 177.780 320.800,177.600 320.260,177.600 319.600 C 177.600 318.940,177.420 318.400,177.200 318.400 C 176.980 318.400,176.800 317.860,176.800 317.200 C 176.800 316.540,176.620 316.000,176.400 316.000 C 176.180 316.000,176.000 315.640,176.000 315.200 C 176.000 314.760,175.820 314.400,175.600 314.400 C 175.380 314.400,175.200 314.220,175.200 314.000 C 175.200 313.735,194.800 313.600,233.200 313.600 C 290.933 313.600,291.200 313.604,291.200 314.400 C 291.200 314.840,291.020 315.200,290.800 315.200 C 290.580 315.200,290.400 315.562,290.400 316.005 C 290.400 316.448,290.220 317.168,290.000 317.605 C 289.780 318.042,289.420 318.758,289.200 319.195 C 288.980 319.632,288.800 320.532,288.800 321.195 C 288.800 321.858,288.620 322.400,288.400 322.400 C 288.180 322.400,288.000 323.199,288.000 324.176 C 288.000 325.153,287.820 326.064,287.600 326.200 C 287.356 326.351,287.200 329.404,287.200 334.024 C 287.200 338.808,287.347 341.600,287.600 341.600 C 287.820 341.600,288.000 342.399,288.000 343.376 C 288.000 344.353,288.180 345.264,288.400 345.400 C 288.620 345.536,288.800 346.177,288.800 346.824 C 288.800 347.471,288.980 348.000,289.200 348.000 C 289.420 348.000,289.600 348.540,289.600 349.200 C 289.600 349.860,289.780 350.400,290.000 350.400 C 290.220 350.400,290.400 350.839,290.400 351.376 C 290.400 351.913,290.580 352.464,290.800 352.600 C 291.020 352.736,291.200 353.197,291.200 353.624 C 291.200 354.051,291.380 354.400,291.600 354.400 C 291.820 354.400,292.000 354.655,292.000 354.968 C 292.000 355.681,293.298 357.994,293.700 357.997 C 293.865 357.999,294.000 358.320,294.000 358.712 C 294.000 359.103,294.360 359.683,294.800 360.000 C 295.240 360.317,295.600 360.789,295.600 361.048 C 295.600 361.307,296.455 362.408,297.500 363.495 C 298.545 364.582,299.592 365.803,299.827 366.209 C 300.061 366.615,300.585 367.139,300.991 367.373 C 301.397 367.608,302.618 368.655,303.705 369.700 C 304.792 370.745,305.867 371.600,306.094 371.600 C 306.321 371.600,306.797 371.915,307.153 372.300 C 307.730 372.924,309.515 374.036,311.200 374.820 C 311.530 374.974,312.582 375.482,313.538 375.950 C 314.494 376.417,315.619 376.800,316.038 376.800 C 316.457 376.800,316.800 376.980,316.800 377.200 C 316.800 377.420,317.340 377.600,318.000 377.600 C 318.660 377.600,319.200 377.780,319.200 378.000 C 319.200 378.220,319.819 378.400,320.576 378.400 C 321.333 378.400,322.064 378.580,322.200 378.800 C 322.336 379.020,323.157 379.200,324.024 379.200 C 324.891 379.200,325.600 379.380,325.600 379.600 C 325.600 380.143,341.064 380.143,341.400 379.600 C 341.536 379.380,342.357 379.200,343.224 379.200 C 344.091 379.200,344.800 379.020,344.800 378.800 C 344.800 378.580,345.520 378.400,346.400 378.400 C 347.280 378.400,348.000 378.220,348.000 378.000 C 348.000 377.780,348.540 377.600,349.200 377.600 C 349.860 377.600,350.400 377.420,350.400 377.200 C 350.400 376.980,350.760 376.800,351.200 376.800 C 351.640 376.800,352.000 376.620,352.000 376.400 C 352.000 376.180,352.272 376.000,352.605 376.000 C 352.938 376.000,353.523 375.840,353.905 375.644 C 354.287 375.449,355.317 374.954,356.194 374.544 C 357.071 374.135,358.028 373.575,358.322 373.300 C 358.617 373.025,359.016 372.800,359.210 372.800 C 359.405 372.800,360.014 372.350,360.564 371.800 C 361.114 371.250,361.761 370.800,362.002 370.800 C 362.598 370.800,370.800 362.463,370.800 361.858 C 370.800 361.593,371.160 361.117,371.600 360.800 C 372.040 360.483,372.400 360.105,372.400 359.960 C 372.400 359.815,373.030 358.651,373.800 357.372 C 374.570 356.093,375.200 354.721,375.200 354.324 C 375.200 353.926,375.380 353.600,375.600 353.600 C 375.820 353.600,376.000 353.240,376.000 352.800 C 376.000 352.360,376.180 352.000,376.400 352.000 C 376.620 352.000,376.800 351.460,376.800 350.800 C 376.800 350.140,376.980 349.600,377.200 349.600 C 377.420 349.600,377.600 349.161,377.600 348.624 C 377.600 348.087,377.780 347.536,378.000 347.400 C 378.220 347.264,378.400 346.634,378.400 346.000 C 378.400 345.366,378.580 344.736,378.800 344.600 C 379.020 344.464,379.200 343.474,379.200 342.400 C 379.200 341.326,379.380 340.336,379.600 340.200 C 379.839 340.052,380.000 337.404,380.000 333.600 C 380.000 329.796,379.839 327.148,379.600 327.000 C 379.380 326.864,379.200 325.964,379.200 325.000 C 379.200 324.036,379.020 323.136,378.800 323.000 C 378.580 322.864,378.400 322.133,378.400 321.376 C 378.400 320.619,378.220 320.000,378.000 320.000 C 377.780 320.000,377.600 319.460,377.600 318.800 C 377.600 318.140,377.420 317.600,377.200 317.600 C 376.980 317.600,376.800 317.060,376.800 316.400 C 376.800 315.740,376.620 315.200,376.400 315.200 C 376.180 315.200,376.000 314.840,376.000 314.400 C 376.000 313.960,375.820 313.600,375.600 313.600 C 375.380 313.600,375.200 313.312,375.200 312.959 C 375.200 312.186,373.124 308.401,372.700 308.400 C 372.535 308.400,372.400 308.128,372.400 307.796 C 372.400 307.464,371.860 306.628,371.200 305.937 C 370.540 305.246,370.000 304.525,370.000 304.335 C 370.000 303.883,363.317 297.200,362.865 297.200 C 362.675 297.200,361.954 296.660,361.263 296.000 C 360.572 295.340,359.818 294.800,359.587 294.800 C 359.356 294.800,358.790 294.449,358.329 294.020 C 357.326 293.085,355.129 292.000,354.240 292.000 C 353.888 292.000,353.600 291.820,353.600 291.600 C 353.600 291.380,353.240 291.200,352.800 291.200 C 352.360 291.200,352.000 291.020,352.000 290.800 C 352.000 290.580,351.460 290.400,350.800 290.400 C 350.140 290.400,349.600 290.220,349.600 290.000 C 349.600 289.780,349.161 289.600,348.624 289.600 C 348.087 289.600,347.536 289.420,347.400 289.200 C 347.264 288.980,346.634 288.800,346.000 288.800 C 345.366 288.800,344.736 288.620,344.600 288.400 C 344.464 288.180,343.474 288.000,342.400 288.000 C 341.326 288.000,340.336 287.820,340.200 287.600 C 340.036 287.335,306.408 287.200,240.612 287.200 L 141.271 287.200 141.052 284.900 C 140.931 283.635,140.726 281.160,140.595 279.400 C 140.464 277.640,140.194 275.840,139.993 275.400 C 139.793 274.960,139.538 273.340,139.426 271.800 C 139.315 270.260,139.084 267.425,138.912 265.500 C 138.606 262.069,138.618 261.999,139.476 262.000 C 139.958 262.000,140.464 261.820,140.600 261.600 C 140.743 261.368,142.937 261.200,145.824 261.200 C 148.875 261.200,150.800 261.045,150.800 260.800 C 150.800 260.556,152.667 260.400,155.600 260.400 C 158.533 260.400,160.400 260.244,160.400 260.000 C 160.400 259.755,162.325 259.600,165.376 259.600 C 168.263 259.600,170.457 259.432,170.600 259.200 C 170.738 258.977,172.647 258.796,174.924 258.792 C 177.166 258.787,182.060 258.520,185.800 258.197 C 189.540 257.874,194.229 257.608,196.220 257.605 C 198.211 257.602,200.011 257.431,200.220 257.224 C 200.429 257.017,202.760 256.746,205.400 256.621 C 208.040 256.497,212.360 256.296,215.000 256.174 C 217.640 256.053,219.971 255.784,220.180 255.577 C 220.389 255.369,222.673 255.200,225.256 255.200 C 227.956 255.200,230.058 255.030,230.200 254.800 C 230.342 254.569,232.471 254.400,235.224 254.400 C 238.141 254.400,240.000 254.244,240.000 254.000 C 240.000 253.755,241.925 253.600,244.976 253.600 C 247.863 253.600,250.057 253.432,250.200 253.200 C 250.342 252.970,252.463 252.800,255.200 252.800 C 257.937 252.800,260.058 252.630,260.200 252.400 C 260.342 252.170,262.463 252.000,265.200 252.000 C 267.937 252.000,270.058 251.830,270.200 251.600 C 270.342 251.369,272.471 251.200,275.224 251.200 C 278.141 251.200,280.000 251.044,280.000 250.800 C 280.000 250.555,281.933 250.400,285.000 250.400 C 288.067 250.400,290.000 250.245,290.000 250.000 C 290.000 249.755,291.925 249.600,294.976 249.600 C 297.863 249.600,300.057 249.432,300.200 249.200 C 300.342 248.970,302.463 248.800,305.200 248.800 C 307.937 248.800,310.058 248.630,310.200 248.400 C 310.342 248.169,312.471 248.000,315.224 248.000 C 318.141 248.000,320.000 247.844,320.000 247.600 C 320.000 247.355,321.933 247.200,325.000 247.200 C 328.067 247.200,330.000 247.045,330.000 246.800 C 330.000 246.555,331.933 246.400,335.000 246.400 C 338.067 246.400,340.000 246.245,340.000 246.000 C 340.000 245.780,340.900 245.600,342.000 245.600 C 343.100 245.600,344.000 245.420,344.000 245.200 C 344.000 244.980,344.720 244.800,345.600 244.800 C 346.480 244.800,347.200 244.620,347.200 244.400 C 347.200 244.180,347.560 244.000,348.000 244.000 C 348.440 244.000,348.800 243.820,348.800 243.600 C 348.800 243.380,349.160 243.200,349.600 243.200 C 350.040 243.200,350.400 243.020,350.400 242.800 C 350.400 242.580,350.760 242.400,351.200 242.400 C 351.640 242.400,352.000 242.220,352.000 242.000 C 352.000 241.780,352.282 241.600,352.627 241.600 C 353.939 241.600,361.200 235.009,361.200 233.819 C 361.200 233.576,361.560 233.117,362.000 232.800 C 362.440 232.483,362.800 231.903,362.800 231.512 C 362.800 231.120,362.980 230.800,363.200 230.800 C 363.420 230.800,363.600 230.440,363.600 230.000 C 363.600 229.560,363.780 229.200,364.000 229.200 C 364.220 229.200,364.400 228.851,364.400 228.424 C 364.400 227.997,364.580 227.536,364.800 227.400 C 365.020 227.264,365.200 226.713,365.200 226.176 C 365.200 225.639,365.380 225.200,365.600 225.200 C 365.820 225.200,366.000 224.390,366.000 223.400 C 366.000 222.410,366.180 221.600,366.400 221.600 C 366.629 221.600,366.800 220.400,366.800 218.800 C 366.800 217.200,366.971 216.000,367.200 216.000 C 367.433 216.000,367.600 214.667,367.600 212.800 C 367.600 210.933,367.767 209.600,368.000 209.600 C 368.231 209.600,368.400 208.333,368.400 206.600 C 368.400 204.867,368.569 203.600,368.800 203.600 C 369.033 203.600,369.200 202.267,369.200 200.400 C 369.200 198.533,369.033 197.200,368.800 197.200 C 368.580 197.200,368.400 196.660,368.400 196.000 C 368.400 195.340,368.220 194.800,368.000 194.800 C 367.780 194.800,367.600 194.464,367.600 194.054 C 367.600 193.132,363.506 188.800,362.635 188.800 C 362.286 188.800,362.000 188.620,362.000 188.400 C 362.000 188.180,361.640 188.000,361.200 188.000 C 360.760 188.000,360.400 187.820,360.400 187.600 C 360.400 187.357,358.600 187.200,355.800 187.200 C 353.000 187.200,351.200 187.357,351.200 187.600 C 351.200 187.820,350.795 188.003,350.300 188.007 C 349.805 188.011,348.787 188.506,348.038 189.107 C 344.043 192.311,342.843 194.559,342.331 199.800 C 342.138 201.780,341.804 204.378,341.590 205.573 C 341.375 206.769,341.200 208.873,341.200 210.250 C 341.200 211.626,341.020 212.864,340.800 213.000 C 340.580 213.136,340.400 214.145,340.400 215.242 C 340.400 217.340,339.187 219.200,337.818 219.200 C 337.478 219.200,337.200 219.380,337.200 219.600 C 337.200 219.844,335.333 220.000,332.400 220.000 C 329.467 220.000,327.600 220.156,327.600 220.400 C 327.600 220.645,325.667 220.800,322.600 220.800 C 319.533 220.800,317.600 220.955,317.600 221.200 C 317.600 221.445,315.667 221.600,312.600 221.600 C 309.533 221.600,307.600 221.755,307.600 222.000 C 307.600 222.244,305.733 222.400,302.800 222.400 C 299.867 222.400,298.000 222.556,298.000 222.800 C 298.000 223.045,296.067 223.200,293.000 223.200 C 289.933 223.200,288.000 223.355,288.000 223.600 C 288.000 223.844,286.132 224.000,283.195 224.000 C 280.552 224.000,278.077 224.166,277.695 224.369 C 277.313 224.573,272.860 224.947,267.800 225.202 C 256.890 225.750,250.606 226.192,233.600 227.608 C 230.850 227.837,226.440 228.120,223.800 228.236 C 221.160 228.352,218.829 228.616,218.620 228.823 C 218.411 229.031,216.127 229.200,213.544 229.200 C 210.844 229.200,208.742 229.370,208.600 229.600 C 208.459 229.829,206.404 230.000,203.800 230.000 C 201.196 230.000,199.141 230.171,199.000 230.400 C 198.857 230.632,196.663 230.800,193.776 230.800 C 190.725 230.800,188.800 230.955,188.800 231.200 C 188.800 231.445,186.875 231.600,183.824 231.600 C 180.937 231.600,178.743 231.768,178.600 232.000 C 178.458 232.229,176.396 232.400,173.776 232.400 C 170.992 232.400,169.200 232.557,169.200 232.800 C 169.200 233.045,167.267 233.200,164.200 233.200 C 161.133 233.200,159.200 233.355,159.200 233.600 C 159.200 233.845,157.275 234.000,154.224 234.000 C 151.337 234.000,149.143 234.168,149.000 234.400 C 148.858 234.630,146.737 234.800,144.000 234.800 C 141.263 234.800,139.142 234.970,139.000 235.200 C 138.864 235.420,137.863 235.600,136.776 235.600 L 134.800 235.600 134.800 232.600 C 134.800 230.867,134.631 229.600,134.400 229.600 C 134.167 229.600,134.000 228.267,134.000 226.400 C 134.000 224.533,133.833 223.200,133.600 223.200 C 133.365 223.200,133.200 221.808,133.200 219.824 C 133.200 217.967,133.020 216.336,132.800 216.200 C 132.580 216.064,132.400 214.624,132.400 213.000 C 132.400 211.376,132.220 209.936,132.000 209.800 C 131.780 209.664,131.600 208.033,131.600 206.176 C 131.600 204.192,131.435 202.800,131.200 202.800 C 130.967 202.800,130.800 201.475,130.800 199.624 C 130.800 197.877,130.620 196.336,130.400 196.200 C 130.180 196.064,130.000 194.523,130.000 192.776 C 130.000 190.925,129.833 189.600,129.600 189.600 C 129.367 189.600,129.200 188.275,129.200 186.424 C 129.200 184.677,129.020 183.136,128.800 183.000 C 128.580 182.864,128.400 181.323,128.400 179.576 C 128.400 177.725,128.233 176.400,128.000 176.400 C 127.767 176.400,127.600 175.075,127.600 173.224 C 127.600 171.477,127.420 169.936,127.200 169.800 C 126.980 169.664,126.800 168.033,126.800 166.176 C 126.800 164.192,126.635 162.800,126.400 162.800 C 126.169 162.800,126.000 161.532,126.000 159.795 C 126.000 158.142,125.835 156.477,125.633 156.095 C 125.431 155.713,125.060 152.610,124.808 149.200 C 124.556 145.790,124.178 141.560,123.967 139.800 C 123.757 138.040,123.401 135.070,123.176 133.200 C 122.951 131.330,122.671 128.315,122.554 126.500 C 122.437 124.685,122.188 123.200,122.000 123.200 C 121.812 123.200,121.571 121.715,121.464 119.900 C 121.356 118.085,121.143 115.925,120.990 115.100 L 120.712 113.600 161.356 113.600 C 188.185 113.600,202.000 113.464,202.000 113.200 C 202.000 112.980,202.720 112.800,203.600 112.800 C 204.480 112.800,205.200 112.620,205.200 112.400 C 205.200 112.180,205.560 112.000,206.000 112.000 C 206.440 112.000,206.800 111.820,206.800 111.600 C 206.800 111.380,206.998 111.200,207.240 111.200 C 207.850 111.200,211.200 107.594,211.200 106.936 C 211.200 106.641,211.380 106.400,211.600 106.400 C 211.820 106.400,212.000 105.950,212.000 105.400 C 212.000 104.850,212.180 104.400,212.400 104.400 C 212.642 104.400,212.800 102.667,212.800 100.000 C 212.800 97.333,212.642 95.600,212.400 95.600 C 212.180 95.600,212.000 95.240,212.000 94.800 C 212.000 94.360,211.820 94.000,211.600 94.000 C 211.380 94.000,211.200 93.732,211.200 93.403 C 211.200 93.075,210.840 92.582,210.400 92.307 C 209.960 92.032,209.600 91.575,209.600 91.291 C 209.600 91.007,209.285 90.657,208.900 90.514 C 208.515 90.370,207.965 89.926,207.677 89.526 C 207.390 89.127,206.895 88.800,206.577 88.800 C 206.260 88.800,206.000 88.620,206.000 88.400 C 206.000 88.180,205.640 88.000,205.200 88.000 C 204.760 88.000,204.400 87.820,204.400 87.600 C 204.400 87.336,189.667 87.200,161.000 87.200 L 117.600 87.200 117.600 85.424 C 117.600 84.447,117.420 83.536,117.200 83.400 C 116.980 83.264,116.800 81.723,116.800 79.976 C 116.800 78.125,116.633 76.800,116.400 76.800 C 116.165 76.800,116.000 75.400,116.000 73.400 C 116.000 71.400,115.835 70.000,115.600 70.000 C 115.380 70.000,115.200 69.100,115.200 68.000 C 115.200 66.900,115.020 66.000,114.800 66.000 C 114.580 66.000,114.400 65.280,114.400 64.400 C 114.400 63.520,114.220 62.800,114.000 62.800 C 113.780 62.800,113.600 62.445,113.600 62.012 C 113.600 61.579,113.240 60.583,112.800 59.800 C 112.360 59.017,112.000 58.021,112.000 57.588 C 112.000 57.155,111.820 56.800,111.600 56.800 C 111.380 56.800,111.200 56.440,111.200 56.000 C 111.200 55.560,111.020 55.200,110.800 55.200 C 110.580 55.200,110.400 54.880,110.400 54.488 C 110.400 54.097,110.040 53.517,109.600 53.200 C 109.160 52.883,108.800 52.303,108.800 51.912 C 108.800 51.520,108.642 51.200,108.449 51.200 C 108.255 51.200,107.889 50.698,107.635 50.085 C 106.960 48.455,101.136 42.000,100.341 42.000 C 100.119 42.000,99.246 41.280,98.400 40.400 C 97.554 39.520,96.618 38.800,96.320 38.800 C 96.021 38.800,95.517 38.440,95.200 38.000 C 94.883 37.560,94.303 37.200,93.912 37.200 C 93.520 37.200,93.200 37.020,93.200 36.800 C 93.200 36.580,92.840 36.400,92.400 36.400 C 91.960 36.400,91.600 36.220,91.600 36.000 C 91.600 35.780,91.330 35.600,91.000 35.600 C 90.670 35.600,90.400 35.420,90.400 35.200 C 90.400 34.980,90.040 34.800,89.600 34.800 C 89.160 34.800,88.800 34.620,88.800 34.400 C 88.800 34.180,88.451 34.000,88.024 34.000 C 87.597 34.000,87.136 33.820,87.000 33.600 C 86.864 33.380,86.313 33.200,85.776 33.200 C 85.239 33.200,84.800 33.020,84.800 32.800 C 84.800 32.580,84.260 32.400,83.600 32.400 C 82.940 32.400,82.400 32.220,82.400 32.000 C 82.400 31.780,81.680 31.600,80.800 31.600 C 79.920 31.600,79.200 31.420,79.200 31.200 C 79.200 30.980,78.480 30.800,77.600 30.800 C 76.720 30.800,76.000 30.620,76.000 30.400 C 76.000 30.180,75.381 30.000,74.624 30.000 C 73.867 30.000,73.136 29.820,73.000 29.600 C 72.864 29.380,72.144 29.200,71.400 29.200 C 70.656 29.200,69.936 29.020,69.800 28.800 C 69.664 28.580,68.933 28.400,68.176 28.400 C 67.419 28.400,66.800 28.220,66.800 28.000 C 66.800 27.780,66.080 27.600,65.200 27.600 C 64.320 27.600,63.600 27.420,63.600 27.200 C 63.600 26.980,62.880 26.800,62.000 26.800 C 61.120 26.800,60.400 26.643,60.400 26.452 C 60.400 26.261,59.635 25.990,58.700 25.851 C 55.083 25.312,51.653 24.586,51.366 24.299 C 51.201 24.135,50.477 24.000,49.757 24.000 C 49.037 24.000,48.336 23.820,48.200 23.600 C 48.064 23.380,47.344 23.200,46.600 23.200 C 45.856 23.200,45.136 23.020,45.000 22.800 C 44.864 22.580,44.234 22.400,43.600 22.400 C 42.966 22.400,42.336 22.220,42.200 22.000 C 42.064 21.780,41.344 21.600,40.600 21.600 C 39.856 21.600,39.136 21.420,39.000 21.200 C 38.864 20.980,38.043 20.800,37.176 20.800 C 36.309 20.800,35.600 20.620,35.600 20.400 C 35.600 20.178,34.533 20.000,33.200 20.000 C 31.867 20.000,30.800 20.178,30.800 20.400 M272.600 45.200 C 272.464 45.420,271.829 45.600,271.189 45.600 C 269.056 45.600,263.600 49.763,263.600 51.389 C 263.600 51.725,263.420 52.000,263.200 52.000 C 262.980 52.000,262.800 52.360,262.800 52.800 C 262.800 53.240,262.620 53.600,262.400 53.600 C 262.157 53.600,262.000 55.400,262.000 58.200 C 262.000 61.000,262.157 62.800,262.400 62.800 C 262.620 62.800,262.800 63.216,262.800 63.725 C 262.800 64.233,263.160 65.036,263.600 65.508 C 264.040 65.980,264.403 66.509,264.407 66.683 C 264.412 66.857,271.792 74.357,280.807 83.349 C 289.823 92.341,297.200 99.834,297.200 100.000 C 297.200 100.166,289.823 107.659,280.807 116.651 C 271.792 125.643,264.412 133.143,264.407 133.317 C 264.403 133.491,264.040 134.020,263.600 134.492 C 263.160 134.964,262.800 135.767,262.800 136.275 C 262.800 136.784,262.620 137.200,262.400 137.200 C 262.157 137.200,262.000 139.000,262.000 141.800 C 262.000 144.600,262.157 146.400,262.400 146.400 C 262.620 146.400,262.800 146.760,262.800 147.200 C 262.800 147.640,262.980 148.000,263.200 148.000 C 263.420 148.000,263.600 148.275,263.600 148.611 C 263.600 150.142,269.034 154.400,270.989 154.400 C 271.519 154.400,272.064 154.580,272.200 154.800 C 272.336 155.020,273.596 155.200,275.000 155.200 C 276.404 155.200,277.664 155.020,277.800 154.800 C 277.936 154.580,278.481 154.400,279.011 154.400 C 280.712 154.400,282.725 152.903,287.215 148.299 C 289.628 145.825,292.121 143.284,292.754 142.653 C 293.835 141.578,306.587 128.828,309.211 126.200 C 309.870 125.540,311.775 123.674,313.445 122.053 L 316.481 119.106 318.878 121.453 C 320.195 122.744,327.693 130.190,335.538 138.000 C 350.534 152.928,351.252 153.600,352.205 153.600 C 352.532 153.600,352.800 153.780,352.800 154.000 C 352.800 154.220,353.329 154.400,353.976 154.400 C 354.623 154.400,355.264 154.580,355.400 154.800 C 355.536 155.020,356.897 155.200,358.424 155.200 C 360.008 155.200,361.200 155.028,361.200 154.800 C 361.200 154.580,361.740 154.400,362.400 154.400 C 363.060 154.400,363.600 154.220,363.600 154.000 C 363.600 153.780,363.960 153.600,364.400 153.600 C 364.840 153.600,365.200 153.420,365.200 153.200 C 365.200 152.980,365.476 152.800,365.813 152.800 C 366.433 152.800,369.192 150.292,369.209 149.713 C 369.214 149.541,369.570 148.950,370.000 148.400 C 370.430 147.850,370.786 146.995,370.791 146.500 C 370.796 146.005,370.980 145.600,371.200 145.600 C 371.439 145.600,371.600 144.067,371.600 141.800 C 371.600 139.533,371.439 138.000,371.200 138.000 C 370.980 138.000,370.800 137.460,370.800 136.800 C 370.800 136.140,370.620 135.600,370.400 135.600 C 370.180 135.600,370.000 135.325,370.000 134.988 C 370.000 134.652,367.795 132.221,365.100 129.586 C 362.405 126.952,359.684 124.278,359.053 123.645 C 357.951 122.538,345.178 109.763,342.705 107.295 C 342.045 106.635,340.173 104.724,338.546 103.048 L 335.587 100.000 338.546 96.952 C 340.173 95.276,342.045 93.365,342.705 92.705 C 345.178 90.237,357.951 77.462,359.053 76.355 C 359.684 75.722,362.405 73.048,365.100 70.414 C 367.795 67.779,370.000 65.348,370.000 65.012 C 370.000 64.675,370.180 64.400,370.400 64.400 C 370.620 64.400,370.800 63.860,370.800 63.200 C 370.800 62.540,370.980 62.000,371.200 62.000 C 371.439 62.000,371.600 60.467,371.600 58.200 C 371.600 55.933,371.439 54.400,371.200 54.400 C 370.980 54.400,370.796 53.995,370.791 53.500 C 370.786 53.005,370.430 52.150,370.000 51.600 C 369.570 51.050,369.214 50.459,369.209 50.287 C 369.192 49.708,366.433 47.200,365.813 47.200 C 365.476 47.200,365.200 47.020,365.200 46.800 C 365.200 46.580,364.840 46.400,364.400 46.400 C 363.960 46.400,363.600 46.220,363.600 46.000 C 363.600 45.780,363.071 45.600,362.424 45.600 C 361.777 45.600,361.136 45.420,361.000 45.200 C 360.864 44.980,359.683 44.800,358.376 44.800 C 357.059 44.800,356.000 44.978,356.000 45.200 C 356.000 45.420,355.280 45.600,354.400 45.600 C 353.520 45.600,352.800 45.780,352.800 46.000 C 352.800 46.220,352.480 46.400,352.088 46.400 C 351.697 46.400,351.117 46.760,350.800 47.200 C 350.483 47.640,350.047 48.000,349.831 48.000 C 349.616 48.000,343.103 54.345,335.359 62.100 C 327.615 69.855,320.199 77.256,318.880 78.547 L 316.481 80.894 313.393 77.895 C 311.694 76.245,309.765 74.355,309.105 73.695 C 306.481 71.067,293.835 58.423,292.754 57.347 C 292.121 56.716,289.628 54.175,287.215 51.701 C 282.588 46.957,280.720 45.600,278.811 45.600 C 278.171 45.600,277.536 45.420,277.400 45.200 C 277.264 44.980,276.184 44.800,275.000 44.800 C 273.816 44.800,272.736 44.980,272.600 45.200 M138.805 314.000 C 139.242 314.220,139.958 314.580,140.395 314.800 C 140.832 315.020,141.462 315.200,141.795 315.200 C 142.128 315.200,142.400 315.380,142.400 315.600 C 142.400 315.820,142.670 316.000,143.000 316.000 C 143.330 316.000,143.600 316.180,143.600 316.400 C 143.600 316.620,143.799 316.800,144.042 316.800 C 144.764 316.800,150.197 322.491,150.820 323.900 C 151.136 324.615,151.531 325.200,151.698 325.200 C 151.864 325.200,152.000 325.740,152.000 326.400 C 152.000 327.060,152.180 327.600,152.400 327.600 C 152.620 327.600,152.800 328.320,152.800 329.200 C 152.800 330.080,152.980 330.800,153.200 330.800 C 153.422 330.800,153.600 331.859,153.600 333.176 C 153.600 334.483,153.420 335.664,153.200 335.800 C 152.980 335.936,152.800 336.847,152.800 337.824 C 152.800 338.801,152.620 339.600,152.400 339.600 C 152.180 339.600,152.000 339.960,152.000 340.400 C 152.000 340.840,151.820 341.200,151.600 341.200 C 151.380 341.200,151.200 341.560,151.200 342.000 C 151.200 342.440,151.020 342.800,150.800 342.800 C 150.580 342.800,150.400 343.070,150.400 343.400 C 150.400 343.730,150.259 344.000,150.086 344.000 C 149.914 344.000,149.467 344.518,149.093 345.151 C 148.155 346.738,146.414 348.490,145.100 349.168 C 144.495 349.480,144.000 349.885,144.000 350.068 C 144.000 350.250,143.730 350.400,143.400 350.400 C 143.070 350.400,142.800 350.580,142.800 350.800 C 142.800 351.020,142.440 351.200,142.000 351.200 C 141.560 351.200,141.200 351.380,141.200 351.600 C 141.200 351.820,140.840 352.000,140.400 352.000 C 139.960 352.000,139.600 352.180,139.600 352.400 C 139.600 352.620,138.801 352.800,137.824 352.800 C 136.847 352.800,135.936 352.980,135.800 353.200 C 135.664 353.420,134.483 353.600,133.176 353.600 C 131.859 353.600,130.800 353.422,130.800 353.200 C 130.800 352.980,130.080 352.800,129.200 352.800 C 128.320 352.800,127.600 352.620,127.600 352.400 C 127.600 352.180,127.060 352.000,126.400 352.000 C 125.740 352.000,125.200 351.864,125.200 351.698 C 125.200 351.531,124.615 351.136,123.900 350.820 C 122.491 350.197,116.800 344.764,116.800 344.042 C 116.800 343.799,116.620 343.600,116.400 343.600 C 116.180 343.600,116.000 343.330,116.000 343.000 C 116.000 342.670,115.820 342.400,115.600 342.400 C 115.380 342.400,115.200 342.128,115.200 341.795 C 115.200 341.462,115.020 340.832,114.800 340.395 C 114.580 339.958,114.220 339.242,114.000 338.805 C 113.780 338.368,113.600 335.848,113.600 333.205 C 113.600 330.268,113.756 328.400,114.000 328.400 C 114.220 328.400,114.400 327.860,114.400 327.200 C 114.400 326.540,114.580 326.000,114.800 326.000 C 115.020 326.000,115.200 325.640,115.200 325.200 C 115.200 324.760,115.380 324.400,115.600 324.400 C 115.820 324.400,116.000 324.130,116.000 323.800 C 116.000 323.470,116.180 323.200,116.400 323.200 C 116.620 323.200,116.800 322.940,116.800 322.622 C 116.800 321.818,121.694 317.002,123.180 316.345 C 123.851 316.048,124.400 315.669,124.400 315.502 C 124.400 315.336,124.760 315.200,125.200 315.200 C 125.640 315.200,126.000 315.020,126.000 314.800 C 126.000 314.580,126.540 314.400,127.200 314.400 C 127.860 314.400,128.400 314.220,128.400 314.000 C 128.400 313.756,130.268 313.600,133.205 313.600 C 135.848 313.600,138.368 313.780,138.805 314.000 M338.805 314.000 C 339.242 314.220,339.958 314.580,340.395 314.800 C 340.832 315.020,341.462 315.200,341.795 315.200 C 342.128 315.200,342.400 315.380,342.400 315.600 C 342.400 315.820,342.670 316.000,343.000 316.000 C 343.330 316.000,343.600 316.180,343.600 316.400 C 343.600 316.620,343.799 316.800,344.042 316.800 C 344.764 316.800,350.197 322.491,350.820 323.900 C 351.136 324.615,351.531 325.200,351.698 325.200 C 351.864 325.200,352.000 325.740,352.000 326.400 C 352.000 327.060,352.180 327.600,352.400 327.600 C 352.620 327.600,352.800 328.320,352.800 329.200 C 352.800 330.080,352.980 330.800,353.200 330.800 C 353.422 330.800,353.600 331.859,353.600 333.176 C 353.600 334.483,353.420 335.664,353.200 335.800 C 352.980 335.936,352.800 336.847,352.800 337.824 C 352.800 338.801,352.620 339.600,352.400 339.600 C 352.180 339.600,352.000 339.960,352.000 340.400 C 352.000 340.840,351.820 341.200,351.600 341.200 C 351.380 341.200,351.200 341.560,351.200 342.000 C 351.200 342.440,351.020 342.800,350.800 342.800 C 350.580 342.800,350.400 343.070,350.400 343.400 C 350.400 343.730,350.259 344.000,350.086 344.000 C 349.914 344.000,349.467 344.518,349.093 345.151 C 348.155 346.738,346.414 348.490,345.100 349.168 C 344.495 349.480,344.000 349.885,344.000 350.068 C 344.000 350.250,343.730 350.400,343.400 350.400 C 343.070 350.400,342.800 350.580,342.800 350.800 C 342.800 351.020,342.440 351.200,342.000 351.200 C 341.560 351.200,341.200 351.380,341.200 351.600 C 341.200 351.820,340.840 352.000,340.400 352.000 C 339.960 352.000,339.600 352.180,339.600 352.400 C 339.600 352.620,338.801 352.800,337.824 352.800 C 336.847 352.800,335.936 352.980,335.800 353.200 C 335.664 353.420,334.483 353.600,333.176 353.600 C 331.859 353.600,330.800 353.422,330.800 353.200 C 330.800 352.980,330.080 352.800,329.200 352.800 C 328.320 352.800,327.600 352.620,327.600 352.400 C 327.600 352.180,327.060 352.000,326.400 352.000 C 325.740 352.000,325.200 351.864,325.200 351.698 C 325.200 351.531,324.615 351.136,323.900 350.820 C 322.491 350.197,316.800 344.764,316.800 344.042 C 316.800 343.799,316.620 343.600,316.400 343.600 C 316.180 343.600,316.000 343.330,316.000 343.000 C 316.000 342.670,315.820 342.400,315.600 342.400 C 315.380 342.400,315.200 342.128,315.200 341.795 C 315.200 341.462,315.020 340.832,314.800 340.395 C 314.580 339.958,314.220 339.242,314.000 338.805 C 313.780 338.368,313.600 335.848,313.600 333.205 C 313.600 330.268,313.756 328.400,314.000 328.400 C 314.220 328.400,314.400 327.860,314.400 327.200 C 314.400 326.540,314.580 326.000,314.800 326.000 C 315.020 326.000,315.200 325.640,315.200 325.200 C 315.200 324.760,315.380 324.400,315.600 324.400 C 315.820 324.400,316.000 324.130,316.000 323.800 C 316.000 323.470,316.180 323.200,316.400 323.200 C 316.620 323.200,316.800 322.940,316.800 322.622 C 316.800 321.818,321.694 317.002,323.180 316.345 C 323.851 316.048,324.400 315.669,324.400 315.502 C 324.400 315.336,324.760 315.200,325.200 315.200 C 325.640 315.200,326.000 315.020,326.000 314.800 C 326.000 314.580,326.540 314.400,327.200 314.400 C 327.860 314.400,328.400 314.220,328.400 314.000 C 328.400 313.756,330.268 313.600,333.205 313.600 C 335.848 313.600,338.368 313.780,338.805 314.000 " stroke="none" fill="#4f266b" fill-rule="evenodd"></path><path id="path1" d="" stroke="none" fill="#080404" fill-rule="evenodd"></path><path id="path2" d="" stroke="none" fill="#080404" fill-rule="evenodd"></path><path id="path3" d="" stroke="none" fill="#080404" fill-rule="evenodd"></path><path id="path4" d="" stroke="none" fill="#080404" fill-rule="evenodd"></path></g></svg>