<svg width="25" height="24" viewBox="0 0 25 24" fill="none" xmlns="http://www.w3.org/2000/svg">
<path d="M3.10151 13.2135C2.74849 10.9162 2.57198 9.76763 3.00629 8.74938C3.44059 7.73112 4.40415 7.03443 6.33126 5.64106L7.77111 4.6C10.1684 2.86667 11.3671 2 12.7501 2C14.1332 2 15.3318 2.86667 17.7291 4.6L19.169 5.64106C21.0961 7.03443 22.0597 7.73112 22.494 8.74938C22.9283 9.76763 22.7518 10.9162 22.3987 13.2135L22.0977 15.1724C21.5973 18.4289 21.347 20.0572 20.1791 21.0286C19.0112 22 17.3038 22 13.8889 22H11.6113C8.19646 22 6.48903 22 5.32112 21.0286C4.15321 20.0572 3.90299 18.4289 3.40255 15.1724L3.10151 13.2135Z" stroke="#8C8C8C" stroke-width="1.5" stroke-linejoin="round"/>
<path d="M15.7501 17C14.9506 17.6224 13.9004 18 12.7501 18C11.5999 18 10.5497 17.6224 9.75012 17" stroke="#8C8C8C" stroke-width="1.5" stroke-linecap="round"/>
</svg>
