<svg width="25" height="24" viewBox="0 0 25 24" fill="none" xmlns="http://www.w3.org/2000/svg">
<path d="M8.75 16L17.4701 15.2733C20.1986 15.046 20.8111 14.45 21.1135 11.7289L21.75 6" fill="#4F266B"/>
<path d="M8.75 16L17.4701 15.2733C20.1986 15.046 20.8111 14.45 21.1135 11.7289L21.75 6M15.5 11C15.1 11 18.6667 9 20.5 8C14.5 8 13 8 13 8L20 7C19 7.16667 16.4 7.5 14 7.5C11 7.5 12.5 7 10.5 7C8.9 7 7.83333 7 7.5 7C7.5 7.16667 7.6 7.6 8 8C8.5 8.5 10 8 10.5 9C11 10 11 12.5 10.5 13C10.1 13.4 9.66667 14.1667 9.5 14.5M9.5 14.5C9 15 8.4 15.7 10 14.5C11.6 13.3 12.3333 12.6667 12.5 12.5L14.5 11L15.5 10L14.5 9.5L16.5 9L17.5 8.5L20.5 7L12 10V9L10 8L13 8.5L15.5 10.5C14.4117 10.9096 12.1881 11.7289 12 11.7289C11.8119 11.7289 12.255 10.9096 12.5 10.5C12.5 10.6667 12.6 10.9 13 10.5C13.4 10.1 13.8333 10 14 10L8.5 10.5L8 9L10.5 9.5L10 13L8.19005 11.7289L9 11L9.5 14.5Z" stroke="#4F266B" stroke-width="1.5" stroke-linecap="round"/>
<path d="M6.75 6H22.75" stroke="#4F266B" stroke-width="1.5" stroke-linecap="round"/>
<path d="M6.75 22C7.85457 22 8.75 21.1046 8.75 20C8.75 18.8954 7.85457 18 6.75 18C5.64543 18 4.75 18.8954 4.75 20C4.75 21.1046 5.64543 22 6.75 22Z" stroke="#4F266B" stroke-width="1.5"/>
<path d="M17.75 22C18.8546 22 19.75 21.1046 19.75 20C19.75 18.8954 18.8546 18 17.75 18C16.6454 18 15.75 18.8954 15.75 20C15.75 21.1046 16.6454 22 17.75 22Z" stroke="#4F266B" stroke-width="1.5"/>
<path d="M8.75 20H15.75" stroke="#4F266B" stroke-width="1.5" stroke-linecap="round"/>
<path d="M2.75 2H3.716C4.66068 2 5.48414 2.62459 5.71326 3.51493L8.68852 15.0765C8.83887 15.6608 8.7102 16.2797 8.33824 16.7616L7.38213 18" stroke="#4F266B" stroke-width="1.5" stroke-linecap="round"/>
</svg>
