<svg width="25" height="24" viewBox="0 0 25 24" fill="none" xmlns="http://www.w3.org/2000/svg">
<path d="M6.82757 15.4816C5.4128 16.324 1.70336 18.0441 3.96266 20.1966C5.06631 21.248 6.29549 22 7.84087 22H16.6591C18.2045 22 19.4337 21.248 20.5373 20.1966C22.7966 18.0441 19.0872 16.324 17.6724 15.4816C14.3548 13.5061 10.1452 13.5061 6.82757 15.4816Z" fill="#4F266B" stroke="#4F266B" stroke-width="1.5" stroke-linecap="round" stroke-linejoin="round"/>
<path d="M16.75 6.5C16.75 8.98528 14.7353 11 12.25 11C9.76472 11 7.75 8.98528 7.75 6.5C7.75 4.01472 9.76472 2 12.25 2C14.7353 2 16.75 4.01472 16.75 6.5Z" fill="#4F266B" stroke="#4F266B" stroke-width="1.5"/>
</svg>
