<svg width="25" height="24" viewBox="0 0 25 24" fill="none" xmlns="http://www.w3.org/2000/svg">
<path d="M8.75 16L17.4701 15.2733C20.1986 15.046 20.8111 14.45 21.1135 11.7289L21.75 6" stroke="#8C8C8C" stroke-width="1.5" stroke-linecap="round"/>
<path d="M6.75 6H22.75" stroke="#8C8C8C" stroke-width="1.5" stroke-linecap="round"/>
<path d="M6.75 22C7.85457 22 8.75 21.1046 8.75 20C8.75 18.8954 7.85457 18 6.75 18C5.64543 18 4.75 18.8954 4.75 20C4.75 21.1046 5.64543 22 6.75 22Z" stroke="#8C8C8C" stroke-width="1.5"/>
<path d="M17.75 22C18.8546 22 19.75 21.1046 19.75 20C19.75 18.8954 18.8546 18 17.75 18C16.6454 18 15.75 18.8954 15.75 20C15.75 21.1046 16.6454 22 17.75 22Z" stroke="#8C8C8C" stroke-width="1.5"/>
<path d="M8.75 20H15.75" stroke="#8C8C8C" stroke-width="1.5" stroke-linecap="round"/>
<path d="M2.75 2H3.716C4.66068 2 5.48414 2.62459 5.71326 3.51493L8.68852 15.0765C8.83887 15.6608 8.7102 16.2797 8.33824 16.7616L7.38213 18" stroke="#8C8C8C" stroke-width="1.5" stroke-linecap="round"/>
</svg>
