<svg width="25" height="25" viewBox="0 0 25 25" fill="none" xmlns="http://www.w3.org/2000/svg">
<path d="M20 18.464C20 19.8447 18.8807 20.964 17.5 20.964C16.1193 20.964 15 19.8447 15 18.464C15 17.0833 16.1193 15.964 17.5 15.964C18.8807 15.964 20 17.0833 20 18.464Z" stroke="white" stroke-width="1.5"/>
<path d="M10 18.464C10 19.8447 8.88071 20.964 7.5 20.964C6.11929 20.964 5 19.8447 5 18.464C5 17.0833 6.11929 15.964 7.5 15.964C8.88071 15.964 10 17.0833 10 18.464Z" stroke="white" stroke-width="1.5"/>
<path d="M15 18.464H10M15.5 16.464V7.96402C15.5 6.54981 15.5 5.8427 15.0607 5.40336C14.6213 4.96402 13.9142 4.96402 12.5 4.96402H5.5C4.08579 4.96402 3.37868 4.96402 2.93934 5.40336C2.5 5.8427 2.5 6.54981 2.5 7.96402V15.964C2.5 16.8986 2.5 17.3659 2.70096 17.714C2.83261 17.942 3.02197 18.1314 3.25 18.263C3.59808 18.464 4.06538 18.464 5 18.464M16 7.46402H17.8014C18.6311 7.46402 19.0459 7.46402 19.3898 7.65872C19.7336 7.85342 19.9471 8.20912 20.3739 8.92053L22.0725 11.7515C22.2849 12.1055 22.3911 12.2826 22.4456 12.4791C22.5 12.6756 22.5 12.882 22.5 13.295V15.964C22.5 16.8986 22.5 17.3659 22.299 17.714C22.1674 17.942 21.978 18.1314 21.75 18.263C21.4019 18.464 20.9346 18.464 20 18.464" stroke="white" stroke-width="1.5" stroke-linecap="round" stroke-linejoin="round"/>
</svg>
